<svg width="92" height="50" viewBox="0 0 92 50" fill="none" xmlns="http://www.w3.org/2000/svg">
<mask id="mask0_661_170" style="mask-type:luminance" maskUnits="userSpaceOnUse" x="0" y="0" width="92" height="50">
<path d="M92 0H0V50H92V0Z" fill="white"/>
</mask>
<g mask="url(#mask0_661_170)">
<path d="M2.42466 19.9362C1.47404 19.9362 1 19.4611 1 18.5123V1.42383C1 0.475035 1.47531 0 2.42466 0H7.55344C8.50279 0 8.97811 0.475035 8.97811 1.42383V9.22743L10.0897 7.03486C10.2993 6.61729 10.5459 6.29038 10.8308 6.05287C11.1157 5.81535 11.4952 5.69659 11.9705 5.69659H17.4992C17.9746 5.69659 18.3017 5.81535 18.4818 6.05287C18.662 6.29038 18.5904 6.5892 18.2684 6.95058L14.1644 11.5643C14.0507 11.8491 14.0264 12.153 14.0928 12.4761C14.1593 12.7991 14.2819 13.089 14.4634 13.3444C14.6435 13.6011 14.8671 13.8143 15.1329 13.9854C15.3987 14.1566 15.6836 14.2421 15.9877 14.2421H17.0993C18.0487 14.2421 18.524 14.7172 18.524 15.6659V18.5136C18.524 19.4637 18.0487 19.9374 17.0993 19.9374H14.5911C12.8241 19.9374 11.5323 19.4011 10.7158 18.3284C9.89935 17.2558 9.4432 15.514 9.34865 13.1018H8.97811V18.5123C8.97811 19.4624 8.50279 19.9362 7.55344 19.9362H2.42466Z" fill="#FF0028"/>
<path d="M30.636 19.9358C29.6854 19.9358 29.2113 19.4608 29.2113 18.512V17.2018C29.0593 17.6003 28.8216 17.9808 28.4984 18.3409C28.1751 18.7023 27.7905 19.0241 27.3446 19.3089C26.8974 19.5936 26.4131 19.8171 25.8918 19.978C25.3692 20.1389 24.8236 20.2206 24.2538 20.2206C23.7222 20.2206 23.1894 20.1491 22.6579 20.0074C22.1264 19.8643 21.6511 19.6421 21.2332 19.3382C20.8154 19.0343 20.473 18.6308 20.2072 18.1277C19.9415 17.6245 19.8086 17.0218 19.8086 16.3195V7.12012C19.8086 6.17132 20.2839 5.69629 21.2332 5.69629H26.362C27.3114 5.69629 27.7867 6.17132 27.7867 7.12012V13.3007C27.7867 13.6621 27.8531 13.9085 27.986 14.0413C28.1189 14.1741 28.2901 14.2405 28.4984 14.2405C28.7066 14.2405 28.8779 14.1741 29.0107 14.0413C29.1436 13.9085 29.2101 13.6621 29.2101 13.3007V7.12012C29.2101 6.17132 29.6854 5.69629 30.6347 5.69629H35.7635C36.7129 5.69629 37.1882 6.17132 37.1882 7.12012V18.512C37.1882 19.4621 36.7129 19.9358 35.7635 19.9358H30.6347H30.636Z" fill="#FF0028"/>
<path d="M49.1569 19.9362C48.7199 19.9362 48.3736 19.8506 48.1168 19.6795C47.86 19.5084 47.7322 19.2811 47.7322 18.9963C47.6747 18.9963 47.5942 19.0576 47.4894 19.1815C47.3846 19.3053 47.2185 19.4471 46.9911 19.6092C46.7637 19.7701 46.4596 19.9132 46.0788 20.037C45.6981 20.1596 45.2049 20.2222 44.5967 20.2222C43.7419 20.2222 42.9343 20.0945 42.1741 19.8378C41.4138 19.5812 40.7494 19.1687 40.1796 18.5992C39.6097 18.0296 39.1587 17.2992 38.8265 16.4066C38.4942 15.514 38.3281 14.4324 38.3281 13.1605C38.3281 10.5031 38.8507 8.5468 39.8959 7.29409C40.9411 6.04137 42.4897 5.41438 44.5404 5.41438C44.9583 5.41438 45.4476 5.47184 46.0085 5.58549C46.5682 5.69915 47.1432 6.00307 47.7322 6.49726V1.42383C47.7322 0.475035 48.2075 0 49.1569 0H54.2856C55.235 0 55.7103 0.475035 55.7103 1.42383V18.511C55.7103 19.4611 55.235 19.9349 54.2856 19.9349H49.1569V19.9362ZM47.0192 8.97076C46.5439 8.97076 46.3063 9.41642 46.3063 10.309V12.4735C46.3063 13.3661 46.5439 13.8118 47.0192 13.8118C47.4945 13.8118 47.7322 13.3661 47.7322 12.4735V10.309C47.7322 9.41642 47.4945 8.97076 47.0192 8.97076Z" fill="#FF0028"/>
<path d="M56.8516 12.8153C56.8516 7.87855 59.7482 5.41016 65.5427 5.41016C71.3372 5.41016 74.2338 7.87855 74.2338 12.8153C74.2338 17.7521 71.3372 20.2205 65.5427 20.2205C59.7482 20.2205 56.8516 17.7521 56.8516 12.8153ZM65.5427 14.5239C66.018 14.5239 66.2557 14.0783 66.2557 13.1857V11.0212C66.2557 10.1286 66.018 9.68292 65.5427 9.68292C65.0674 9.68292 64.8297 10.1286 64.8297 11.0212V13.1857C64.8297 14.0783 65.0674 14.5239 65.5427 14.5239Z" fill="#FF0028"/>
<path d="M83.0692 10.5091C83.0692 10.965 83.2928 11.297 83.7387 11.5064C84.1846 11.7159 84.7404 11.8768 85.4061 11.9904C86.0706 12.1041 86.7976 12.2037 87.5859 12.2892C88.3743 12.3748 89.1013 12.5408 89.7657 12.7872C90.4301 13.0337 90.986 13.3951 91.4332 13.8701C91.8791 14.3452 92.1027 15.0092 92.1027 15.8635C92.1027 17.3639 91.3616 18.503 89.8794 19.2807C88.3973 20.0584 86.2315 20.4478 83.3822 20.4478C82.1288 20.4478 80.989 20.3623 79.963 20.1912C78.937 20.02 78.0631 19.7404 77.3411 19.3509C76.6192 18.9614 76.0634 18.4532 75.6737 17.8275C75.284 17.2005 75.0898 16.4228 75.0898 15.4919C75.0898 15.1688 75.1562 14.8981 75.2891 14.6797C75.422 14.4614 75.735 14.3515 76.2295 14.3515H81.5589C82.0342 14.3515 82.3664 14.4614 82.5568 14.6797C82.7459 14.8981 82.8417 15.188 82.8417 15.5481C82.8417 15.8137 82.9171 15.9848 83.0692 16.0601C83.2212 16.1368 83.3541 16.1738 83.4678 16.1738C83.7336 16.1738 83.9099 16.0793 83.9955 15.889C84.0811 15.7 84.1233 15.5187 84.1233 15.3476C84.1233 14.8726 83.8997 14.5354 83.4538 14.3362C83.0078 14.137 82.452 13.9799 81.7863 13.8663C81.1207 13.7526 80.3949 13.653 79.6065 13.5675C78.8182 13.4819 78.0912 13.3159 77.4268 13.0695C76.7611 12.823 76.2052 12.4616 75.7593 11.9879C75.3134 11.5128 75.0898 10.8488 75.0898 9.9945C75.0898 8.49533 75.8309 7.35627 77.313 6.57731C78.7952 5.79963 80.9609 5.41016 83.8103 5.41016C85.0637 5.41016 86.2034 5.49571 87.2294 5.66683C88.2555 5.83794 89.1294 6.1176 89.8513 6.50708C90.5732 6.89656 91.1291 7.40352 91.5188 8.03051C91.9085 8.65751 92.1027 9.43519 92.1027 10.3661C92.1027 10.6892 92.0362 10.9599 91.9034 11.1783C91.7705 11.3966 91.4574 11.5052 90.963 11.5052H85.6336C85.1583 11.5052 84.826 11.3966 84.6357 11.1783C84.4453 10.9599 84.3507 10.67 84.3507 10.3099C84.3507 10.0443 84.2741 9.87319 84.1233 9.79785C83.9712 9.72251 83.8384 9.6842 83.7246 9.6842C83.4589 9.6842 83.2826 9.77997 83.1969 9.96896C83.1113 10.1592 83.0692 10.3393 83.0692 10.5104V10.5091Z" fill="#FF0028"/>
<path d="M56.9177 50.0001C55.7217 50.0001 55.125 49.4038 55.125 48.2085V26.7144C55.125 25.5205 55.7217 24.9229 56.9177 24.9229H70.5382C71.7329 24.9229 72.3309 25.5205 72.3309 26.7144V30.2964C72.3309 31.4903 71.7329 32.088 70.5382 32.088H65.1615V33.5207H69.8214C71.0161 33.5207 71.614 34.1184 71.614 35.3123V36.7451C71.614 37.9391 71.0161 38.5367 69.8214 38.5367H65.1615V39.9695H70.5382C71.7329 39.9695 72.3309 40.5671 72.3309 41.7611V48.2098C72.3309 49.4038 71.7329 50.0014 70.5382 50.0014H56.9177V50.0001Z" fill="white"/>
<path d="M79.3213 50.0004C78.1266 50.0004 77.5287 49.4041 77.5287 48.2088V34.9538H75.0192C73.8245 34.9538 73.2266 34.3575 73.2266 33.1622V26.7135C73.2266 25.5195 73.8233 24.9219 75.0192 24.9219H90.0746C91.2693 24.9219 91.8673 25.5195 91.8673 26.7135V33.1622C91.8673 34.3562 91.2693 34.9538 90.0746 34.9538H87.5652V48.2088C87.5652 49.4028 86.9672 50.0004 85.7725 50.0004H79.32H79.3213Z" fill="white"/>
<path d="M52.9055 38.8044C52.3804 37.8735 51.6879 37.1328 50.8267 36.5837C52.4047 35.437 53.193 33.7897 53.193 31.6406C53.193 29.3471 52.3331 27.6398 50.612 26.5173C48.8909 25.3949 46.3943 24.833 43.1207 24.833H33.6209C33.5225 24.833 33.4292 24.8368 33.3398 24.8445C33.916 25.7205 34.2252 26.7434 34.2252 27.8122V37.7305L34.9446 38.4507C35.9553 39.4608 36.5111 40.8003 36.5111 42.2229V46.4548C36.5111 47.7713 36.0319 48.9781 35.2385 49.9103H43.6216C46.8964 49.9103 49.3931 49.296 51.1142 48.065C52.834 46.8353 53.6952 44.9543 53.6952 42.4234C53.6952 40.9421 53.432 39.7366 52.9055 38.8044ZM43.6574 40.0584C43.6574 40.3687 43.5858 40.656 43.4427 40.9191C43.2996 41.1809 43.0722 41.3124 42.7617 41.3124C42.4512 41.3124 42.2238 41.1809 42.0807 40.9191C41.9376 40.656 41.866 40.3687 41.866 40.0584V39.7008C41.866 39.3905 41.9376 39.1032 42.0807 38.8402C42.2238 38.5784 42.4512 38.4469 42.7617 38.4469C43.0722 38.4469 43.2996 38.5784 43.4427 38.8402C43.5858 39.1032 43.6574 39.3905 43.6574 39.7008V40.0584ZM43.6574 33.6097C43.6574 33.9212 43.5858 34.2073 43.4427 34.4703C43.2996 34.7334 43.0722 34.8637 42.7617 34.8637C42.4512 34.8637 42.2238 34.7334 42.0807 34.4703C41.9376 34.2073 41.866 33.9212 41.866 33.6097V33.2521C41.866 32.9418 41.9376 32.6558 42.0807 32.3927C42.2238 32.1297 42.4512 31.9981 42.7617 31.9981C43.0722 31.9981 43.2996 32.1297 43.4427 32.3927C43.5858 32.6558 43.6574 32.9418 43.6574 33.2521V33.6097Z" fill="white"/>
<path d="M32.3068 27.8434V40.4075C32.3068 42.2464 30.9192 43.826 29.087 43.9741C27.0298 44.1401 25.2934 42.5018 25.2934 40.479V32.7099C25.2934 32.595 25.2321 32.4915 25.135 32.4149C25.0366 32.3409 24.9024 32.2936 24.7517 32.2936C24.4552 32.2936 24.2112 32.4801 24.2112 32.7099V40.4075C24.2112 42.2464 22.8236 43.826 20.9913 43.9741C18.9342 44.1401 17.1978 42.5018 17.1978 40.479V32.7099C17.1978 32.595 17.1377 32.4915 17.0393 32.4149C16.9409 32.3409 16.8068 32.2936 16.6573 32.2936C16.3608 32.2936 16.1168 32.4801 16.1168 32.7099V40.479C16.1168 42.4469 14.4749 44.0495 12.4919 43.9843C10.5881 43.9218 9.10085 42.3064 9.10085 40.4024V32.7099C9.10085 32.595 9.03952 32.4915 8.94241 32.4149C8.8453 32.3409 8.70986 32.2936 8.56037 32.2936C8.26394 32.2936 8.01989 32.4801 8.01989 32.7099V40.4075C8.01989 42.2464 6.63356 43.826 4.80131 43.9741C2.74289 44.1414 1.00391 42.503 1.00391 40.479V29.6056C1.00391 27.6799 2.5244 26.0594 4.44993 26.0249C5.02746 26.0147 5.57305 26.145 6.05731 26.385C6.08925 26.4016 6.11992 26.4182 6.15186 26.4336C6.21064 26.4629 6.27069 26.4885 6.33074 26.514C6.33713 26.5166 6.34352 26.5204 6.35119 26.5217C6.72045 26.689 7.12293 26.7796 7.54586 26.7796C7.57141 26.7796 7.59697 26.7796 7.62252 26.7784C7.6353 26.7796 7.64808 26.7796 7.66085 26.7796C8.78525 26.7796 9.79082 26.2369 10.4284 25.3979C10.836 24.8616 11.4173 24.4747 12.083 24.3738C12.2542 24.3483 12.4293 24.3342 12.6069 24.3342C13.1883 24.3342 13.7364 24.476 14.2194 24.7301C14.7164 25.0864 15.3093 25.2907 15.9418 25.2907C16.4771 25.2907 16.9818 25.1451 17.4265 24.8846C17.6437 24.7595 17.8481 24.6049 18.0321 24.4274C18.1113 24.3355 18.1944 24.2474 18.2813 24.1631C18.9112 23.5604 19.7647 23.1875 20.7013 23.1875C21.6378 23.1875 22.5438 23.5821 23.1775 24.218C23.2031 24.2423 23.2273 24.2678 23.2516 24.2934C23.4701 24.527 23.7205 24.7275 23.9914 24.8846C24.4361 25.1438 24.9408 25.2907 25.4761 25.2907C26.1252 25.2907 26.7309 25.0749 27.2368 24.7033H27.2394C27.7083 24.4658 28.2373 24.3342 28.7969 24.3342C29.4869 24.3342 30.1322 24.5347 30.6752 24.8846C30.8924 25.0212 31.093 25.1834 31.2744 25.3647C31.9107 26.0007 32.3043 26.8767 32.3043 27.8421L32.3068 27.8434Z" fill="white"/>
<path d="M34.5928 42.2539V46.4858C34.5928 48.3693 33.0519 49.9106 31.1672 49.9106H20.6209C18.7362 49.9106 17.1953 48.3693 17.1953 46.4858V43.73C17.2796 43.822 17.3678 43.9101 17.4598 43.9956C18.4411 44.901 19.7661 45.3582 21.0911 45.2496C22.595 45.1283 23.9417 44.2651 24.7364 43.0073C24.9613 43.3687 25.2373 43.6994 25.5555 43.9956C26.5367 44.901 27.8605 45.3582 29.1867 45.2496C31.6528 45.0504 33.5847 42.923 33.5847 40.4061V39.834C34.2056 40.4546 34.5902 41.3114 34.5902 42.2526L34.5928 42.2539Z" fill="white"/>
</g>
</svg>
